<svg xmlns="http://www.w3.org/2000/svg" xmlns:xlink="http://www.w3.org/1999/xlink" width="500" zoomAndPan="magnify" viewBox="0 0 375 374.999991" height="500" preserveAspectRatio="xMidYMid meet" version="1.0"><defs><g/><clipPath id="505f963c99"><path d="M 115 70.261719 L 247 70.261719 L 247 220.261719 L 115 220.261719 Z M 115 70.261719 " clip-rule="nonzero"/></clipPath><clipPath id="f1e7e08e38"><path d="M 202 79 L 261.75 79 L 261.75 139 L 202 139 Z M 202 79 " clip-rule="nonzero"/></clipPath></defs><g clip-path="url(#505f963c99)"><path fill="#00a651" d="M 205.59375 82.445312 L 200.28125 91.195312 C 195.3125 88.34375 190.394531 85.410156 185.339844 82.734375 C 184.34375 82.203125 182.4375 82.152344 181.597656 82.765625 C 165.335938 94.664062 147.320312 100.878906 127.046875 100.0625 C 126.714844 100.050781 126.382812 100.132812 125.90625 100.183594 C 125.773438 100.542969 125.496094 100.9375 125.488281 101.335938 C 125.113281 124.855469 127.539062 147.867188 138.332031 169.25 C 147.480469 187.371094 161.5625 200.21875 180.324219 207.984375 C 182.570312 208.914062 184.488281 208.910156 186.734375 207.945312 C 212.074219 197.046875 228.027344 177.945312 236.007812 151.828125 C 236.304688 150.867188 236.59375 149.902344 236.933594 148.796875 C 238.566406 148.664062 240.238281 148.558594 241.90625 148.386719 C 243.453125 148.222656 244.988281 147.988281 246.929688 147.730469 C 244.773438 156.820312 241.660156 165.15625 237.589844 173.148438 C 226.371094 195.175781 208.964844 210.402344 186.183594 219.605469 C 184.625 220.234375 182.378906 220.210938 180.796875 219.597656 C 150.507812 207.839844 131.890625 185.4375 122.480469 154.882812 C 116.222656 134.558594 114.75 113.609375 115.078125 92.476562 C 115.085938 92.15625 115.207031 91.835938 115.304688 91.402344 C 120.683594 91.121094 126.039062 90.929688 131.386719 90.542969 C 149.484375 89.230469 165.707031 82.792969 180.226562 72.078125 C 182.652344 70.289062 184.210938 70.292969 186.683594 71.789062 C 192.816406 75.503906 199.167969 78.859375 205.59375 82.445312 Z M 205.59375 82.445312 " fill-opacity="1" fill-rule="nonzero"/></g><path fill="#f7941d" d="M 195.085938 140.699219 C 194.753906 140.675781 194.417969 140.664062 194.011719 140.644531 C 193.988281 140.257812 193.960938 139.925781 193.953125 139.59375 C 193.859375 136.300781 193.894531 132.996094 193.644531 129.714844 C 193.347656 125.851562 189.550781 122.207031 185.691406 122.015625 C 182.777344 121.867188 179.851562 121.972656 176.933594 121.9375 C 172.707031 121.886719 168.105469 125.867188 168.113281 131.046875 C 168.117188 132.847656 168.058594 134.652344 168.042969 136.457031 C 168.03125 137.84375 168.042969 139.230469 168.042969 140.613281 C 167.164062 140.699219 166.511719 140.730469 165.871094 140.832031 C 164.210938 141.101562 162.308594 142.996094 162.300781 144.5625 C 162.253906 151.367188 162.25 158.175781 162.289062 164.984375 C 162.300781 166.886719 164.386719 168.816406 166.296875 168.820312 C 176.03125 168.835938 185.761719 168.832031 195.492188 168.8125 C 197.671875 168.808594 199.621094 166.945312 199.644531 164.746094 C 199.707031 158.28125 199.714844 151.816406 199.667969 145.347656 C 199.648438 142.652344 197.792969 140.890625 195.085938 140.699219 Z M 183.789062 153.542969 C 183.109375 154.238281 182.90625 154.9375 182.921875 155.855469 C 182.949219 157.6875 182.925781 159.523438 182.84375 161.355469 C 182.792969 162.480469 182.523438 162.667969 181.386719 162.691406 C 179.171875 162.734375 179.058594 162.636719 179.023438 160.441406 C 179.007812 159.632812 179.019531 158.824219 179.019531 158.015625 L 178.996094 158.015625 C 178.996094 157.488281 178.984375 156.957031 179 156.429688 C 179.039062 155.285156 178.960938 154.320312 178 153.359375 C 176.457031 151.816406 176.785156 149.398438 178.417969 147.957031 C 179.941406 146.613281 182.28125 146.699219 183.761719 148.152344 C 185.207031 149.574219 185.277344 152.019531 183.789062 153.542969 Z M 187.578125 140.628906 L 174.164062 140.628906 C 174.28125 137.214844 174.320312 133.867188 174.546875 130.53125 C 174.644531 129.085938 175.660156 128.238281 177.140625 128.210938 C 179.808594 128.164062 182.484375 128.222656 185.152344 128.320312 C 186.324219 128.363281 187.140625 129.125 187.332031 130.273438 C 187.496094 131.28125 187.554688 132.3125 187.570312 133.332031 C 187.601562 135.726562 187.578125 138.113281 187.578125 140.628906 Z M 187.578125 140.628906 " fill-opacity="1" fill-rule="nonzero"/><g clip-path="url(#f1e7e08e38)"><path fill="#f7941d" d="M 232.320312 79.796875 C 216.066406 79.796875 202.890625 92.972656 202.890625 109.226562 C 202.890625 125.476562 216.066406 138.65625 232.320312 138.65625 C 248.574219 138.65625 261.75 125.476562 261.75 109.226562 C 261.75 92.972656 248.574219 79.796875 232.320312 79.796875 Z M 249.234375 101.796875 C 249.003906 102.101562 248.730469 102.375 248.460938 102.644531 C 242.492188 108.617188 236.519531 114.589844 230.546875 120.5625 C 228.445312 122.660156 226.707031 122.667969 224.625 120.582031 C 221.667969 117.632812 218.714844 114.679688 215.765625 111.726562 C 214.78125 110.742188 214.433594 109.566406 214.820312 108.226562 C 215.195312 106.914062 216.113281 106.121094 217.429688 105.84375 C 218.734375 105.570312 219.796875 106.066406 220.710938 106.980469 C 222.734375 109.011719 224.761719 111.039062 226.796875 113.0625 C 227.042969 113.304688 227.296875 113.539062 227.714844 113.9375 C 227.953125 113.613281 228.125 113.296875 228.367188 113.050781 C 233.5 107.90625 238.636719 102.765625 243.773438 97.628906 C 244.496094 96.90625 245.277344 96.347656 246.339844 96.3125 C 247.78125 96.261719 248.890625 96.839844 249.554688 98.121094 C 250.214844 99.398438 250.09375 100.644531 249.234375 101.796875 Z M 249.234375 101.796875 " fill-opacity="1" fill-rule="nonzero"/></g><g fill="#00a651" fill-opacity="1"><g transform="translate(65.685275, 253.619544)"><g><path d="M 11.328125 0.40625 C 8.109375 0.40625 5.65625 -0.488281 3.96875 -2.28125 C 2.28125 -4.082031 1.4375 -6.632812 1.4375 -9.9375 C 1.4375 -11.570312 1.691406 -13.035156 2.203125 -14.328125 C 2.722656 -15.617188 3.429688 -16.707031 4.328125 -17.59375 C 5.222656 -18.476562 6.289062 -19.148438 7.53125 -19.609375 C 8.769531 -20.066406 10.113281 -20.296875 11.5625 -20.296875 C 12.40625 -20.296875 13.171875 -20.234375 13.859375 -20.109375 C 14.546875 -19.984375 15.144531 -19.835938 15.65625 -19.671875 C 16.175781 -19.515625 16.609375 -19.347656 16.953125 -19.171875 C 17.296875 -19.003906 17.539062 -18.875 17.6875 -18.78125 L 16.40625 -15.171875 C 15.789062 -15.492188 15.078125 -15.769531 14.265625 -16 C 13.453125 -16.226562 12.53125 -16.34375 11.5 -16.34375 C 10.820312 -16.34375 10.148438 -16.226562 9.484375 -16 C 8.828125 -15.769531 8.242188 -15.398438 7.734375 -14.890625 C 7.234375 -14.390625 6.828125 -13.738281 6.515625 -12.9375 C 6.210938 -12.132812 6.0625 -11.160156 6.0625 -10.015625 C 6.0625 -9.097656 6.160156 -8.242188 6.359375 -7.453125 C 6.566406 -6.660156 6.894531 -5.976562 7.34375 -5.40625 C 7.789062 -4.832031 8.375 -4.378906 9.09375 -4.046875 C 9.820312 -3.710938 10.703125 -3.546875 11.734375 -3.546875 C 12.378906 -3.546875 12.957031 -3.582031 13.46875 -3.65625 C 13.988281 -3.738281 14.445312 -3.832031 14.84375 -3.9375 C 15.25 -4.039062 15.601562 -4.160156 15.90625 -4.296875 C 16.21875 -4.429688 16.5 -4.554688 16.75 -4.671875 L 17.96875 -1.09375 C 17.34375 -0.707031 16.457031 -0.359375 15.3125 -0.046875 C 14.164062 0.253906 12.835938 0.40625 11.328125 0.40625 Z M 11.328125 0.40625 "/></g></g></g><g fill="#00a651" fill-opacity="1"><g transform="translate(84.229224, 253.619544)"><g><path d="M 14.25 -19.84375 L 18.71875 -19.84375 L 18.71875 0 L 14.25 0 L 14.25 -8.421875 L 6.75 -8.421875 L 6.75 0 L 2.296875 0 L 2.296875 -19.84375 L 6.75 -19.84375 L 6.75 -12.25 L 14.25 -12.25 Z M 14.25 -19.84375 "/></g></g></g><g fill="#00a651" fill-opacity="1"><g transform="translate(105.234246, 253.619544)"><g><path d="M 21.125 -10.25 C 21.125 -8.132812 20.773438 -6.285156 20.078125 -4.703125 C 19.378906 -3.128906 18.3125 -1.90625 16.875 -1.03125 C 15.4375 -0.15625 13.609375 0.28125 11.390625 0.28125 C 9.179688 0.28125 7.351562 -0.15625 5.90625 -1.03125 C 4.46875 -1.90625 3.398438 -3.132812 2.703125 -4.71875 C 2.003906 -6.300781 1.65625 -8.15625 1.65625 -10.28125 C 1.65625 -12.394531 2.003906 -14.234375 2.703125 -15.796875 C 3.398438 -17.359375 4.46875 -18.570312 5.90625 -19.4375 C 7.351562 -20.3125 9.191406 -20.75 11.421875 -20.75 C 13.628906 -20.75 15.445312 -20.3125 16.875 -19.4375 C 18.3125 -18.570312 19.378906 -17.351562 20.078125 -15.78125 C 20.773438 -14.207031 21.125 -12.363281 21.125 -10.25 Z M 6.21875 -10.25 C 6.21875 -8.113281 6.625 -6.425781 7.4375 -5.1875 C 8.257812 -3.957031 9.578125 -3.34375 11.390625 -3.34375 C 13.242188 -3.34375 14.570312 -3.957031 15.375 -5.1875 C 16.175781 -6.425781 16.578125 -8.113281 16.578125 -10.25 C 16.578125 -12.382812 16.175781 -14.066406 15.375 -15.296875 C 14.570312 -16.523438 13.253906 -17.140625 11.421875 -17.140625 C 9.585938 -17.140625 8.257812 -16.523438 7.4375 -15.296875 C 6.625 -14.066406 6.21875 -12.382812 6.21875 -10.25 Z M 15.25 -25.15625 C 15.613281 -25.5625 15.945312 -25.976562 16.25 -26.40625 C 16.5625 -26.832031 16.867188 -27.351562 17.171875 -27.96875 L 20.546875 -27.96875 L 20.546875 -27.671875 C 20.128906 -27.117188 19.632812 -26.597656 19.0625 -26.109375 C 18.488281 -25.628906 17.925781 -25.1875 17.375 -24.78125 L 15.25 -24.78125 Z M 16.484375 -22.0625 L 14.21875 -22.0625 C 13.75 -22.375 13.265625 -22.726562 12.765625 -23.125 C 12.265625 -23.519531 11.769531 -23.941406 11.28125 -24.390625 C 10.78125 -23.941406 10.28125 -23.519531 9.78125 -23.125 C 9.289062 -22.726562 8.804688 -22.375 8.328125 -22.0625 L 6.0625 -22.0625 L 6.0625 -22.4375 C 6.539062 -22.988281 7.050781 -23.617188 7.59375 -24.328125 C 8.144531 -25.035156 8.640625 -25.710938 9.078125 -26.359375 L 13.484375 -26.359375 C 13.921875 -25.710938 14.410156 -25.035156 14.953125 -24.328125 C 15.492188 -23.617188 16.003906 -22.988281 16.484375 -22.4375 Z M 16.484375 -22.0625 "/></g></g></g><g fill="#00a651" fill-opacity="1"><g transform="translate(128.013537, 253.619544)"><g><path d="M 15.59375 0 C 14.320312 -2.269531 12.941406 -4.507812 11.453125 -6.71875 C 9.960938 -8.9375 8.378906 -11.03125 6.703125 -13 L 6.703125 0 L 2.296875 0 L 2.296875 -19.84375 L 5.921875 -19.84375 C 6.554688 -19.207031 7.253906 -18.429688 8.015625 -17.515625 C 8.773438 -16.597656 9.550781 -15.617188 10.34375 -14.578125 C 11.132812 -13.546875 11.921875 -12.46875 12.703125 -11.34375 C 13.492188 -10.226562 14.226562 -9.15625 14.90625 -8.125 L 14.90625 -19.84375 L 19.34375 -19.84375 L 19.34375 0 Z M 15.59375 0 "/></g></g></g><g fill="#00a651" fill-opacity="1"><g transform="translate(149.648146, 253.619544)"><g><path d="M 11.96875 -16.40625 C 9.882812 -16.40625 8.378906 -15.828125 7.453125 -14.671875 C 6.523438 -13.515625 6.0625 -11.9375 6.0625 -9.9375 C 6.0625 -8.957031 6.175781 -8.070312 6.40625 -7.28125 C 6.632812 -6.488281 6.976562 -5.804688 7.4375 -5.234375 C 7.894531 -4.660156 8.46875 -4.21875 9.15625 -3.90625 C 9.84375 -3.59375 10.644531 -3.4375 11.5625 -3.4375 C 12.0625 -3.4375 12.488281 -3.445312 12.84375 -3.46875 C 13.195312 -3.488281 13.503906 -3.523438 13.765625 -3.578125 L 13.765625 -10.484375 L 18.234375 -10.484375 L 18.234375 -0.65625 C 17.703125 -0.445312 16.84375 -0.222656 15.65625 0.015625 C 14.476562 0.253906 13.019531 0.375 11.28125 0.375 C 9.789062 0.375 8.4375 0.144531 7.21875 -0.3125 C 6.007812 -0.769531 4.972656 -1.4375 4.109375 -2.3125 C 3.253906 -3.195312 2.59375 -4.273438 2.125 -5.546875 C 1.664062 -6.828125 1.4375 -8.289062 1.4375 -9.9375 C 1.4375 -11.59375 1.691406 -13.0625 2.203125 -14.34375 C 2.722656 -15.625 3.429688 -16.707031 4.328125 -17.59375 C 5.222656 -18.476562 6.273438 -19.148438 7.484375 -19.609375 C 8.691406 -20.066406 9.984375 -20.296875 11.359375 -20.296875 C 12.296875 -20.296875 13.140625 -20.234375 13.890625 -20.109375 C 14.648438 -19.984375 15.300781 -19.835938 15.84375 -19.671875 C 16.382812 -19.515625 16.832031 -19.347656 17.1875 -19.171875 C 17.539062 -19.003906 17.796875 -18.875 17.953125 -18.78125 L 16.65625 -15.203125 C 16.050781 -15.523438 15.351562 -15.804688 14.5625 -16.046875 C 13.769531 -16.285156 12.90625 -16.40625 11.96875 -16.40625 Z M 11.96875 -16.40625 "/></g></g></g><g fill="#00a651" fill-opacity="1"><g transform="translate(169.737424, 253.619544)"><g/></g></g><g fill="#00a651" fill-opacity="1"><g transform="translate(176.605549, 253.619544)"><g><path d="M 15.546875 -3.828125 L 15.546875 0 L 2.296875 0 L 2.296875 -19.84375 L 6.75 -19.84375 L 6.75 -3.828125 Z M 15.546875 -3.828125 "/></g></g></g><g fill="#00a651" fill-opacity="1"><g transform="translate(192.717034, 253.619544)"><g><path d="M 19.203125 -20.4375 L 19.203125 -17.8125 C 19.890625 -18.050781 20.394531 -18.519531 20.71875 -19.21875 C 21.050781 -19.914062 21.21875 -20.757812 21.21875 -21.75 L 25.421875 -21.75 L 25.625 -21.4375 C 25.40625 -20.40625 25.09375 -19.457031 24.6875 -18.59375 C 24.28125 -17.738281 23.648438 -17.019531 22.796875 -16.4375 C 21.953125 -15.863281 20.753906 -15.460938 19.203125 -15.234375 L 19.203125 -7.21875 C 19.203125 -5.800781 18.890625 -4.523438 18.265625 -3.390625 C 17.648438 -2.253906 16.710938 -1.359375 15.453125 -0.703125 C 14.191406 -0.046875 12.617188 0.28125 10.734375 0.28125 C 8.023438 0.28125 5.960938 -0.40625 4.546875 -1.78125 C 3.140625 -3.164062 2.4375 -4.992188 2.4375 -7.265625 L 2.4375 -20.4375 L 6.75 -20.4375 L 6.75 -7.578125 C 6.75 -6.078125 7.09375 -4.992188 7.78125 -4.328125 C 8.46875 -3.671875 9.488281 -3.34375 10.84375 -3.34375 C 12.257812 -3.34375 13.285156 -3.703125 13.921875 -4.421875 C 14.566406 -5.140625 14.890625 -6.203125 14.890625 -7.609375 L 14.890625 -20.4375 Z M 10.125 -26.734375 C 10.414062 -26.316406 10.753906 -25.84375 11.140625 -25.3125 C 11.535156 -24.789062 11.9375 -24.285156 12.34375 -23.796875 C 12.757812 -23.316406 13.117188 -22.894531 13.421875 -22.53125 L 13.421875 -22.15625 L 10.59375 -22.15625 C 10.226562 -22.40625 9.800781 -22.710938 9.3125 -23.078125 C 8.820312 -23.453125 8.320312 -23.847656 7.8125 -24.265625 C 7.3125 -24.691406 6.84375 -25.09375 6.40625 -25.46875 C 5.96875 -25.851562 5.613281 -26.179688 5.34375 -26.453125 L 5.34375 -26.734375 Z M 10.125 -26.734375 "/></g></g></g><g fill="#00a651" fill-opacity="1"><g transform="translate(218.04325, 253.619544)"><g><path d="M 15.578125 0 C 15.359375 -0.6875 15.117188 -1.390625 14.859375 -2.109375 C 14.609375 -2.835938 14.359375 -3.566406 14.109375 -4.296875 L 6.390625 -4.296875 C 6.140625 -3.566406 5.882812 -2.835938 5.625 -2.109375 C 5.363281 -1.390625 5.128906 -0.6875 4.921875 0 L 0.28125 0 C 1.03125 -2.132812 1.738281 -4.109375 2.40625 -5.921875 C 3.070312 -7.734375 3.722656 -9.441406 4.359375 -11.046875 C 5.003906 -12.648438 5.632812 -14.171875 6.25 -15.609375 C 6.875 -17.054688 7.519531 -18.46875 8.1875 -19.84375 L 12.453125 -19.84375 C 13.097656 -18.46875 13.734375 -17.054688 14.359375 -15.609375 C 14.992188 -14.171875 15.628906 -12.648438 16.265625 -11.046875 C 16.910156 -9.441406 17.566406 -7.734375 18.234375 -5.921875 C 18.898438 -4.109375 19.609375 -2.132812 20.359375 0 Z M 10.21875 -15.34375 C 10.125 -15.050781 9.976562 -14.65625 9.78125 -14.15625 C 9.59375 -13.664062 9.375 -13.097656 9.125 -12.453125 C 8.882812 -11.804688 8.613281 -11.085938 8.3125 -10.296875 C 8.019531 -9.515625 7.71875 -8.695312 7.40625 -7.84375 L 13.046875 -7.84375 C 12.742188 -8.695312 12.445312 -9.515625 12.15625 -10.296875 C 11.875 -11.085938 11.601562 -11.804688 11.34375 -12.453125 C 11.09375 -13.097656 10.867188 -13.664062 10.671875 -14.15625 C 10.484375 -14.65625 10.332031 -15.050781 10.21875 -15.34375 Z M 10.21875 -15.34375 "/></g></g></g><g fill="#00a651" fill-opacity="1"><g transform="translate(238.676248, 253.619544)"><g/></g></g><g fill="#00a651" fill-opacity="1"><g transform="translate(245.544374, 253.619544)"><g><path d="M 7.078125 -3.640625 C 7.285156 -3.617188 7.523438 -3.601562 7.796875 -3.59375 C 8.078125 -3.582031 8.40625 -3.578125 8.78125 -3.578125 C 11.019531 -3.578125 12.675781 -4.140625 13.75 -5.265625 C 14.832031 -6.390625 15.375 -7.945312 15.375 -9.9375 C 15.375 -12.007812 14.859375 -13.582031 13.828125 -14.65625 C 12.796875 -15.726562 11.164062 -16.265625 8.9375 -16.265625 C 8.625 -16.265625 8.304688 -16.257812 7.984375 -16.25 C 7.660156 -16.238281 7.359375 -16.210938 7.078125 -16.171875 L 7.078125 -11.9375 L 10.671875 -11.9375 L 10.671875 -8.640625 L 7.078125 -8.640625 Z M 19.984375 -9.9375 C 19.984375 -8.21875 19.710938 -6.71875 19.171875 -5.4375 C 18.640625 -4.15625 17.878906 -3.09375 16.890625 -2.25 C 15.910156 -1.414062 14.710938 -0.789062 13.296875 -0.375 C 11.890625 0.0390625 10.3125 0.25 8.5625 0.25 C 7.757812 0.25 6.820312 0.21875 5.75 0.15625 C 4.6875 0.09375 3.640625 -0.0390625 2.609375 -0.25 L 2.609375 -8.640625 L 0.28125 -8.640625 L 0.28125 -11.9375 L 2.609375 -11.9375 L 2.609375 -19.578125 C 3.640625 -19.765625 4.710938 -19.890625 5.828125 -19.953125 C 6.941406 -20.023438 7.898438 -20.0625 8.703125 -20.0625 C 10.398438 -20.0625 11.941406 -19.867188 13.328125 -19.484375 C 14.710938 -19.109375 15.898438 -18.507812 16.890625 -17.6875 C 17.878906 -16.863281 18.640625 -15.8125 19.171875 -14.53125 C 19.710938 -13.257812 19.984375 -11.726562 19.984375 -9.9375 Z M 19.984375 -9.9375 "/></g></g></g><g fill="#00a651" fill-opacity="1"><g transform="translate(266.950035, 253.619544)"><g><path d="M 15.078125 0 L 13.59375 -4.859375 L 6.15625 -4.859375 L 4.671875 0 L 0 0 L 7.21875 -20.53125 L 12.515625 -20.53125 L 19.75 0 Z M 12.5625 -8.5 L 11.078125 -13.25 C 10.984375 -13.570312 10.859375 -13.984375 10.703125 -14.484375 C 10.554688 -14.984375 10.40625 -15.488281 10.25 -16 C 10.09375 -16.519531 9.96875 -16.96875 9.875 -17.34375 C 9.78125 -16.96875 9.648438 -16.492188 9.484375 -15.921875 C 9.328125 -15.359375 9.175781 -14.820312 9.03125 -14.3125 C 8.882812 -13.8125 8.773438 -13.457031 8.703125 -13.25 L 7.234375 -8.5 Z M 13.453125 -25.5 C 13.453125 -24.050781 12.695312 -23.132812 11.1875 -22.75 L 11.046875 -21.75 L 8.609375 -21.75 L 8.296875 -23.8125 C 9.003906 -23.925781 9.484375 -24.101562 9.734375 -24.34375 C 9.984375 -24.582031 10.109375 -24.875 10.109375 -25.21875 C 10.109375 -25.519531 10.003906 -25.742188 9.796875 -25.890625 C 9.597656 -26.046875 9.347656 -26.125 9.046875 -26.125 C 8.660156 -26.125 8.316406 -26.09375 8.015625 -26.03125 C 7.710938 -25.976562 7.40625 -25.90625 7.09375 -25.8125 L 7.09375 -28.15625 C 7.363281 -28.257812 7.726562 -28.335938 8.1875 -28.390625 C 8.644531 -28.453125 9.101562 -28.484375 9.5625 -28.484375 C 10.851562 -28.484375 11.820312 -28.222656 12.46875 -27.703125 C 13.125 -27.191406 13.453125 -26.457031 13.453125 -25.5 Z M 13.453125 -25.5 "/></g></g></g><g fill="#00a651" fill-opacity="1"><g transform="translate(286.695898, 253.619544)"><g><path d="M 6.046875 -9.9375 C 6.046875 -8.957031 6.160156 -8.078125 6.390625 -7.296875 C 6.628906 -6.515625 6.972656 -5.84375 7.421875 -5.28125 C 7.867188 -4.71875 8.414062 -4.28125 9.0625 -3.96875 C 9.71875 -3.664062 10.46875 -3.515625 11.3125 -3.515625 C 12.125 -3.515625 12.859375 -3.664062 13.515625 -3.96875 C 14.179688 -4.28125 14.738281 -4.71875 15.1875 -5.28125 C 15.632812 -5.84375 15.976562 -6.515625 16.21875 -7.296875 C 16.457031 -8.078125 16.578125 -8.957031 16.578125 -9.9375 C 16.578125 -10.90625 16.457031 -11.785156 16.21875 -12.578125 C 15.976562 -13.367188 15.632812 -14.046875 15.1875 -14.609375 C 14.738281 -15.171875 14.179688 -15.601562 13.515625 -15.90625 C 12.859375 -16.21875 12.125 -16.375 11.3125 -16.375 C 10.46875 -16.375 9.71875 -16.210938 9.0625 -15.890625 C 8.414062 -15.578125 7.867188 -15.140625 7.421875 -14.578125 C 6.972656 -14.015625 6.628906 -13.335938 6.390625 -12.546875 C 6.160156 -11.753906 6.046875 -10.882812 6.046875 -9.9375 Z M 21.1875 -9.9375 C 21.1875 -8.238281 20.929688 -6.742188 20.421875 -5.453125 C 19.921875 -4.160156 19.226562 -3.082031 18.34375 -2.21875 C 17.46875 -1.351562 16.421875 -0.695312 15.203125 -0.25 C 13.992188 0.1875 12.695312 0.40625 11.3125 0.40625 C 9.957031 0.40625 8.675781 0.1875 7.46875 -0.25 C 6.269531 -0.695312 5.222656 -1.351562 4.328125 -2.21875 C 3.429688 -3.082031 2.722656 -4.160156 2.203125 -5.453125 C 1.691406 -6.742188 1.4375 -8.238281 1.4375 -9.9375 C 1.4375 -11.632812 1.703125 -13.125 2.234375 -14.40625 C 2.765625 -15.695312 3.484375 -16.78125 4.390625 -17.65625 C 5.296875 -18.539062 6.34375 -19.203125 7.53125 -19.640625 C 8.726562 -20.078125 9.988281 -20.296875 11.3125 -20.296875 C 12.664062 -20.296875 13.941406 -20.078125 15.140625 -19.640625 C 16.347656 -19.203125 17.398438 -18.539062 18.296875 -17.65625 C 19.191406 -16.78125 19.894531 -15.695312 20.40625 -14.40625 C 20.925781 -13.125 21.1875 -11.632812 21.1875 -9.9375 Z M 21.1875 -9.9375 "/></g></g></g></svg>